#N canvas 625 46 826 873 10;
#X obj 26 11 ctlin;
#X floatatom 26 84 5 0 0 0 - - -, f 5;
#X floatatom 63 84 5 0 0 0 - - -, f 5;
#X obj 26 135 gate 16;
#X obj 63 108 - 31;
#X obj 26 159 vsl 10 124 0 127 0 0 empty empty empty 0 -9 0 10 -262144
-1 -1 0 1;
#X obj 40 159 vsl 10 124 0 127 0 0 empty empty empty 0 -9 0 10 -262144
-1 -1 0 1;
#X obj 54 159 vsl 10 124 0 127 0 0 empty empty empty 0 -9 0 10 -262144
-1 -1 291 1;
#X obj 68 159 vsl 10 124 0 127 0 0 empty empty empty 0 -9 0 10 -262144
-1 -1 0 1;
#X obj 82 159 vsl 10 124 0 127 0 0 empty empty empty 0 -9 0 10 -262144
-1 -1 3099 1;
#X obj 96 159 vsl 10 124 0 127 0 0 empty empty empty 0 -9 0 10 -262144
-1 -1 0 1;
#X obj 110 159 vsl 10 124 0 127 0 0 empty empty empty 0 -9 0 10 -262144
-1 -1 0 1;
#X obj 124 159 vsl 10 124 0 127 0 0 empty empty empty 0 -9 0 10 -262144
-1 -1 0 1;
#X obj 138 159 vsl 10 124 0 127 0 0 empty empty empty 0 -9 0 10 -262144
-1 -1 0 1;
#X obj 152 159 vsl 10 124 0 127 0 0 empty empty empty 0 -9 0 10 -262144
-1 -1 0 1;
#X obj 166 159 vsl 10 124 0 127 0 0 empty empty empty 0 -9 0 10 -262144
-1 -1 0 1;
#X obj 180 159 vsl 10 124 0 127 0 0 empty empty empty 0 -9 0 10 -262144
-1 -1 0 1;
#X obj 194 159 vsl 10 124 0 127 0 0 empty empty empty 0 -9 0 10 -262144
-1 -1 0 1;
#X obj 208 159 vsl 10 124 0 127 0 0 empty empty empty 0 -9 0 10 -262144
-1 -1 0 1;
#X obj 222 159 vsl 10 124 0 127 0 0 empty empty empty 0 -9 0 10 -262144
-1 -1 0 1;
#X obj 236 159 vsl 10 124 0 127 0 0 empty empty empty 0 -9 0 10 -262144
-1 -1 0 1;
#X obj 25 331 osc~;
#X obj 77 414 *~ 0.2;
#X obj 77 441 dac~;
#X obj 67 330 osc~;
#X obj 20 355 *~;
#X obj 115 337 osc~;
#X obj 157 336 osc~;
#X obj 110 361 *~;
#X obj 80 383 *~;
#X obj 115 308 * 0.1;
#X obj 157 307 * 0.1;
#X obj 25 302 * 1;
#X obj 67 301 * 1;
#X connect 0 0 1 0;
#X connect 0 1 2 0;
#X connect 1 0 3 1;
#X connect 2 0 4 0;
#X connect 3 0 5 0;
#X connect 3 1 6 0;
#X connect 3 2 7 0;
#X connect 3 3 8 0;
#X connect 3 4 9 0;
#X connect 3 5 10 0;
#X connect 3 6 11 0;
#X connect 3 7 12 0;
#X connect 3 8 13 0;
#X connect 3 9 14 0;
#X connect 3 10 15 0;
#X connect 3 11 16 0;
#X connect 3 12 17 0;
#X connect 3 13 18 0;
#X connect 3 14 19 0;
#X connect 3 15 20 0;
#X connect 4 0 3 0;
#X connect 5 0 32 0;
#X connect 6 0 24 0;
#X connect 6 0 33 0;
#X connect 7 0 30 0;
#X connect 8 0 31 0;
#X connect 21 0 25 0;
#X connect 22 0 23 0;
#X connect 22 0 23 1;
#X connect 24 0 25 1;
#X connect 25 0 29 0;
#X connect 26 0 28 0;
#X connect 27 0 28 1;
#X connect 28 0 29 1;
#X connect 29 0 22 0;
#X connect 30 0 26 0;
#X connect 31 0 27 0;
#X connect 32 0 21 0;
#X connect 33 0 24 0;
