#N canvas 0 276 524 635 10;
#X obj 135 125 bng 59 250 50 0 empty empty empty 17 7 0 10 -262144
-1 -1;
#X floatatom 135 221 5 0 0 0 - - -, f 5;
#X obj 351 272 / 2;
#X floatatom 352 331 5 0 0 0 - - -, f 5;
#X obj 352 299 % 2;
#X floatatom 308 329 5 0 0 0 - - -, f 5;
#X obj 308 297 % 2;
#X obj 307 270 / 4;
#X floatatom 397 331 5 0 0 0 - - -, f 5;
#X obj 397 299 % 2;
#X obj 396 272 / 1;
#X floatatom 268 328 5 0 0 0 - - -, f 5;
#X obj 268 296 % 2;
#X obj 267 269 / 8;
#X floatatom 172 329 5 0 0 0 - - -, f 5;
#X obj 172 297 % 2;
#X floatatom 128 327 5 0 0 0 - - -, f 5;
#X obj 128 295 % 2;
#X floatatom 217 329 5 0 0 0 - - -, f 5;
#X obj 217 297 % 2;
#X floatatom 88 326 5 0 0 0 - - -, f 5;
#X obj 88 294 % 2;
#X obj 216 270 / 16;
#X obj 171 270 / 32;
#X obj 127 268 / 64;
#X obj 87 267 / 128;
#X obj 100 92 metro 50;
#X obj 99 49 tgl 31 0 empty empty empty 17 7 0 10 -262144 -1 -1 1 1
;
#X obj 135 193 counter 256;
#X connect 0 0 28 0;
#X connect 1 0 2 0;
#X connect 1 0 7 0;
#X connect 1 0 10 0;
#X connect 1 0 13 0;
#X connect 1 0 22 0;
#X connect 1 0 23 0;
#X connect 1 0 24 0;
#X connect 1 0 25 0;
#X connect 2 0 4 0;
#X connect 4 0 3 0;
#X connect 6 0 5 0;
#X connect 7 0 6 0;
#X connect 9 0 8 0;
#X connect 10 0 9 0;
#X connect 12 0 11 0;
#X connect 13 0 12 0;
#X connect 15 0 14 0;
#X connect 17 0 16 0;
#X connect 19 0 18 0;
#X connect 21 0 20 0;
#X connect 22 0 19 0;
#X connect 23 0 15 0;
#X connect 24 0 17 0;
#X connect 25 0 21 0;
#X connect 26 0 0 0;
#X connect 27 0 26 0;
#X connect 28 0 1 0;
